<svg width="156" height="31" viewBox="0 0 156 31" fill="none" xmlns="http://www.w3.org/2000/svg">
<path d="M11.9013 11.5291C11.8274 10.7843 11.5104 10.2057 10.9503 9.79332C10.3902 9.38092 9.62997 9.17471 8.66974 9.17471C8.01728 9.17471 7.46638 9.26704 7.01705 9.4517C6.56771 9.63021 6.22301 9.8795 5.98295 10.1996C5.74905 10.5196 5.6321 10.8828 5.6321 11.2891C5.61979 11.6276 5.69058 11.9231 5.84446 12.1754C6.0045 12.4278 6.22301 12.6463 6.5 12.831C6.77699 13.0095 7.09706 13.1664 7.46023 13.3018C7.82339 13.4311 8.21117 13.5419 8.62358 13.6342L10.3224 14.0405C11.1473 14.2251 11.9044 14.4714 12.5938 14.7791C13.2831 15.0869 13.8802 15.4654 14.3849 15.9148C14.8897 16.3641 15.2805 16.8935 15.5575 17.5028C15.8407 18.1122 15.9853 18.8108 15.9915 19.5987C15.9853 20.7559 15.6899 21.7592 15.1051 22.6087C14.5265 23.4519 13.6894 24.1075 12.5938 24.5753C11.5043 25.0369 10.1901 25.2678 8.65128 25.2678C7.12476 25.2678 5.79522 25.0339 4.66264 24.5661C3.53622 24.0982 2.65601 23.4058 2.02202 22.4886C1.39418 21.5653 1.06487 20.4235 1.03409 19.0632H4.9027C4.94579 19.6972 5.12737 20.2266 5.44744 20.6513C5.77367 21.0698 6.20762 21.3868 6.74929 21.6023C7.29711 21.8116 7.91572 21.9162 8.60511 21.9162C9.2822 21.9162 9.87003 21.8177 10.3686 21.6207C10.8733 21.4238 11.2642 21.1499 11.5412 20.799C11.8182 20.4482 11.9567 20.045 11.9567 19.5895C11.9567 19.1648 11.8305 18.8078 11.5781 18.5185C11.3319 18.2292 10.9688 17.983 10.4886 17.7798C10.0147 17.5767 9.433 17.392 8.74361 17.2259L6.68466 16.7088C5.09044 16.321 3.83168 15.7147 2.90838 14.8899C1.98509 14.0651 1.52652 12.9541 1.53267 11.5568C1.52652 10.4119 1.8312 9.41169 2.44673 8.55611C3.06842 7.70052 3.92093 7.03267 5.00426 6.55256C6.08759 6.07244 7.31866 5.83239 8.69744 5.83239C10.1009 5.83239 11.3258 6.07244 12.3722 6.55256C13.4247 7.03267 14.2434 7.70052 14.8281 8.55611C15.4129 9.41169 15.7145 10.4027 15.733 11.5291H11.9013ZM26.15 10.8182V13.7727H17.6096V10.8182H26.15ZM19.5485 7.42045H23.4817V20.642C23.4817 21.0052 23.5371 21.2884 23.6479 21.4915C23.7587 21.6884 23.9126 21.8269 24.1096 21.907C24.3127 21.987 24.5466 22.027 24.8113 22.027C24.9959 22.027 25.1806 22.0116 25.3652 21.9808C25.5499 21.9439 25.6915 21.9162 25.79 21.8977L26.4086 24.8246C26.2116 24.8861 25.9346 24.9569 25.5776 25.0369C25.2206 25.1231 24.7866 25.1754 24.2757 25.1939C23.3278 25.2308 22.4969 25.1046 21.7828 24.8153C21.075 24.526 20.5241 24.0767 20.1301 23.4673C19.7362 22.858 19.5423 22.0885 19.5485 21.1591V7.42045ZM34.9675 25.277C33.5333 25.277 32.293 24.9723 31.2466 24.3629C30.2064 23.7474 29.4031 22.8918 28.8368 21.7962C28.2705 20.6944 27.9874 19.4171 27.9874 17.9645C27.9874 16.4995 28.2705 15.2192 28.8368 14.1236C29.4031 13.0218 30.2064 12.1662 31.2466 11.5568C32.293 10.9413 33.5333 10.6335 34.9675 10.6335C36.4017 10.6335 37.6389 10.9413 38.6792 11.5568C39.7256 12.1662 40.5319 13.0218 41.0982 14.1236C41.6645 15.2192 41.9476 16.4995 41.9476 17.9645C41.9476 19.4171 41.6645 20.6944 41.0982 21.7962C40.5319 22.8918 39.7256 23.7474 38.6792 24.3629C37.6389 24.9723 36.4017 25.277 34.9675 25.277ZM34.986 22.2301C35.6384 22.2301 36.1832 22.0455 36.6202 21.6761C37.0572 21.3007 37.3865 20.7898 37.6081 20.1435C37.8359 19.4972 37.9498 18.7616 37.9498 17.9368C37.9498 17.112 37.8359 16.3764 37.6081 15.7301C37.3865 15.0838 37.0572 14.5729 36.6202 14.1974C36.1832 13.822 35.6384 13.6342 34.986 13.6342C34.3274 13.6342 33.7734 13.822 33.324 14.1974C32.8809 14.5729 32.5454 15.0838 32.3176 15.7301C32.0961 16.3764 31.9853 17.112 31.9853 17.9368C31.9853 18.7616 32.0961 19.4972 32.3176 20.1435C32.5454 20.7898 32.8809 21.3007 33.324 21.6761C33.7734 22.0455 34.3274 22.2301 34.986 22.2301ZM44.5051 25V10.8182H48.3184V13.2926H48.4661C48.7246 12.4124 49.1586 11.7476 49.7679 11.2983C50.3773 10.8428 51.079 10.6151 51.873 10.6151C52.07 10.6151 52.2824 10.6274 52.5101 10.652C52.7379 10.6766 52.9379 10.7105 53.1103 10.7536V14.2436C52.9256 14.1882 52.6702 14.139 52.3439 14.0959C52.0177 14.0528 51.7192 14.0312 51.4483 14.0312C50.8697 14.0312 50.3527 14.1574 49.8972 14.4098C49.4479 14.656 49.0908 15.0007 48.8262 15.4439C48.5676 15.8871 48.4384 16.398 48.4384 16.9766V25H44.5051ZM58.0037 30.3182C57.5051 30.3182 57.0373 30.2782 56.6003 30.1982C56.1694 30.1243 55.8124 30.0289 55.5293 29.9119L56.4157 26.9759C56.8773 27.1174 57.2928 27.1944 57.6621 27.2067C58.0376 27.219 58.3607 27.1328 58.6316 26.9482C58.9086 26.7635 59.1332 26.4496 59.3056 26.0064L59.5364 25.4062L54.449 10.8182H58.5854L61.5215 21.233H61.6692L64.633 10.8182H68.7971L63.285 26.5327C63.0203 27.2959 62.6602 27.9607 62.2047 28.527C61.7554 29.0994 61.186 29.5395 60.4966 29.8473C59.8072 30.1612 58.9763 30.3182 58.0037 30.3182ZM81.1415 11.5291C81.0676 10.7843 80.7507 10.2057 80.1905 9.79332C79.6304 9.38092 78.8702 9.17471 77.91 9.17471C77.2575 9.17471 76.7066 9.26704 76.2573 9.4517C75.8079 9.63021 75.4632 9.8795 75.2232 10.1996C74.9893 10.5196 74.8723 10.8828 74.8723 11.2891C74.86 11.6276 74.9308 11.9231 75.0847 12.1754C75.2447 12.4278 75.4632 12.6463 75.7402 12.831C76.0172 13.0095 76.3373 13.1664 76.7005 13.3018C77.0636 13.4311 77.4514 13.5419 77.8638 13.6342L79.5627 14.0405C80.3875 14.2251 81.1446 14.4714 81.834 14.7791C82.5234 15.0869 83.1204 15.4654 83.6252 15.9148C84.1299 16.3641 84.5208 16.8935 84.7978 17.5028C85.0809 18.1122 85.2256 18.8108 85.2317 19.5987C85.2256 20.7559 84.9301 21.7592 84.3453 22.6087C83.7668 23.4519 82.9296 24.1075 81.834 24.5753C80.7445 25.0369 79.4303 25.2678 77.8915 25.2678C76.365 25.2678 75.0355 25.0339 73.9029 24.5661C72.7765 24.0982 71.8962 23.4058 71.2623 22.4886C70.6344 21.5653 70.3051 20.4235 70.2743 19.0632H74.1429C74.186 19.6972 74.3676 20.2266 74.6877 20.6513C75.0139 21.0698 75.4479 21.3868 75.9895 21.6023C76.5373 21.8116 77.156 21.9162 77.8453 21.9162C78.5224 21.9162 79.1103 21.8177 79.6088 21.6207C80.1136 21.4238 80.5044 21.1499 80.7814 20.799C81.0584 20.4482 81.1969 20.045 81.1969 19.5895C81.1969 19.1648 81.0707 18.8078 80.8184 18.5185C80.5721 18.2292 80.209 17.983 79.7289 17.7798C79.2549 17.5767 78.6732 17.392 77.9838 17.2259L75.9249 16.7088C74.3307 16.321 73.0719 15.7147 72.1486 14.8899C71.2253 14.0651 70.7667 12.9541 70.7729 11.5568C70.7667 10.4119 71.0714 9.41169 71.687 8.55611C72.3087 7.70052 73.1612 7.03267 74.2445 6.55256C75.3278 6.07244 76.5589 5.83239 77.9377 5.83239C79.3411 5.83239 80.566 6.07244 81.6124 6.55256C82.665 7.03267 83.4836 7.70052 84.0684 8.55611C84.6531 9.41169 84.9547 10.4027 84.9732 11.5291H81.1415ZM94.2546 25.277C92.802 25.277 91.5524 24.9692 90.506 24.3537C89.4658 23.732 88.6656 22.8703 88.1055 21.7685C87.5515 20.6667 87.2745 19.3987 87.2745 17.9645C87.2745 16.5118 87.5546 15.2377 88.1147 14.142C88.681 13.0402 89.4843 12.1816 90.5245 11.5661C91.5647 10.9444 92.802 10.6335 94.2362 10.6335C95.4734 10.6335 96.5567 10.8582 97.4862 11.3075C98.4156 11.7569 99.1512 12.3878 99.6928 13.2003C100.234 14.0128 100.533 14.9669 100.588 16.0625H96.8768C96.7721 15.3546 96.4951 14.7853 96.0458 14.3544C95.6026 13.9174 95.021 13.6989 94.3008 13.6989C93.6914 13.6989 93.159 13.8651 92.7035 14.1974C92.2541 14.5237 91.9033 15.0007 91.6509 15.6286C91.3986 16.2564 91.2724 17.0166 91.2724 17.9091C91.2724 18.8139 91.3955 19.5833 91.6417 20.2173C91.8941 20.8513 92.248 21.3345 92.7035 21.6669C93.159 21.9993 93.6914 22.1655 94.3008 22.1655C94.7501 22.1655 95.1533 22.0732 95.5103 21.8885C95.8735 21.7038 96.172 21.4361 96.4059 21.0852C96.646 20.7282 96.8029 20.3004 96.8768 19.8018H100.588C100.527 20.8852 100.231 21.8393 99.7021 22.6641C99.1789 23.4827 98.4556 24.1229 97.5323 24.5845C96.609 25.0462 95.5165 25.277 94.2546 25.277ZM107.151 25.2678C106.246 25.2678 105.44 25.1108 104.732 24.7969C104.024 24.4768 103.464 24.0059 103.051 23.3842C102.645 22.7564 102.442 21.9747 102.442 21.0391C102.442 20.2512 102.587 19.5895 102.876 19.054C103.165 18.5185 103.559 18.0876 104.058 17.7614C104.556 17.4351 105.123 17.1889 105.757 17.0227C106.397 16.8565 107.068 16.7396 107.769 16.6719C108.594 16.5857 109.259 16.5057 109.764 16.4318C110.268 16.3518 110.635 16.2348 110.862 16.081C111.09 15.9271 111.204 15.6993 111.204 15.3977V15.3423C111.204 14.7576 111.019 14.3052 110.65 13.9851C110.287 13.665 109.77 13.505 109.099 13.505C108.391 13.505 107.828 13.6619 107.409 13.9759C106.991 14.2836 106.714 14.6714 106.578 15.1392L102.941 14.8438C103.125 13.982 103.488 13.2372 104.03 12.6094C104.572 11.9754 105.27 11.4891 106.126 11.1506C106.988 10.8059 107.985 10.6335 109.117 10.6335C109.905 10.6335 110.659 10.7259 111.379 10.9105C112.106 11.0952 112.749 11.3814 113.309 11.7692C113.875 12.157 114.322 12.6555 114.648 13.2649C114.974 13.8681 115.137 14.5914 115.137 15.4347V25H111.407V23.0334H111.296C111.069 23.4766 110.764 23.8674 110.382 24.206C110.001 24.5384 109.542 24.8 109.007 24.9908C108.471 25.1754 107.852 25.2678 107.151 25.2678ZM108.277 22.5533C108.856 22.5533 109.367 22.4394 109.81 22.2116C110.253 21.9777 110.601 21.6638 110.853 21.2699C111.106 20.8759 111.232 20.4297 111.232 19.9311V18.4261C111.109 18.5062 110.939 18.58 110.724 18.6477C110.515 18.7093 110.278 18.7678 110.013 18.8232C109.748 18.8724 109.484 18.9186 109.219 18.9616C108.954 18.9986 108.714 19.0324 108.499 19.0632C108.037 19.1309 107.634 19.2386 107.289 19.3864C106.945 19.5341 106.677 19.7341 106.486 19.9865C106.295 20.2327 106.2 20.5405 106.2 20.9098C106.2 21.4453 106.394 21.8546 106.781 22.1378C107.175 22.4148 107.674 22.5533 108.277 22.5533ZM118.189 30.3182V10.8182H122.067V13.2003H122.242C122.414 12.8187 122.664 12.4309 122.99 12.0369C123.322 11.6368 123.753 11.3045 124.282 11.0398C124.818 10.7689 125.483 10.6335 126.277 10.6335C127.311 10.6335 128.265 10.9044 129.139 11.446C130.013 11.9815 130.712 12.791 131.235 13.8743C131.758 14.9515 132.02 16.3026 132.02 17.9276C132.02 19.5095 131.764 20.8452 131.253 21.9347C130.749 23.018 130.059 23.8397 129.185 24.3999C128.317 24.9538 127.345 25.2308 126.268 25.2308C125.504 25.2308 124.855 25.1046 124.319 24.8523C123.79 24.5999 123.356 24.2829 123.018 23.9013C122.679 23.5135 122.421 23.1226 122.242 22.7287H122.122V30.3182H118.189ZM122.039 17.9091C122.039 18.7524 122.156 19.4879 122.39 20.1158C122.624 20.7436 122.962 21.233 123.405 21.5838C123.849 21.9285 124.387 22.1009 125.021 22.1009C125.661 22.1009 126.203 21.9254 126.646 21.5746C127.089 21.2176 127.425 20.7251 127.653 20.0973C127.886 19.4633 128.003 18.7339 128.003 17.9091C128.003 17.0904 127.89 16.3703 127.662 15.7486C127.434 15.1269 127.099 14.6406 126.655 14.2898C126.212 13.9389 125.667 13.7635 125.021 13.7635C124.381 13.7635 123.839 13.9328 123.396 14.2713C122.959 14.6098 122.624 15.09 122.39 15.7116C122.156 16.3333 122.039 17.0658 122.039 17.9091ZM141.105 25.277C139.646 25.277 138.39 24.9815 137.338 24.3906C136.291 23.7936 135.485 22.9503 134.919 21.8608C134.353 20.7652 134.069 19.4695 134.069 17.9737C134.069 16.5149 134.353 15.2346 134.919 14.1328C135.485 13.031 136.282 12.1723 137.31 11.5568C138.344 10.9413 139.557 10.6335 140.948 10.6335C141.884 10.6335 142.755 10.7843 143.561 11.0859C144.373 11.3814 145.081 11.8277 145.684 12.4247C146.294 13.0218 146.768 13.7727 147.106 14.6776C147.445 15.5762 147.614 16.6288 147.614 17.8352V18.9155H135.639V16.478H143.912C143.912 15.9117 143.789 15.41 143.542 14.973C143.296 14.536 142.955 14.1944 142.518 13.9482C142.087 13.6958 141.585 13.5696 141.013 13.5696C140.416 13.5696 139.886 13.7081 139.425 13.9851C138.969 14.2559 138.612 14.6222 138.354 15.0838C138.095 15.5393 137.963 16.0471 137.956 16.6072V18.9247C137.956 19.6264 138.086 20.2327 138.344 20.7436C138.609 21.2545 138.981 21.6484 139.461 21.9254C139.942 22.2024 140.511 22.3409 141.17 22.3409C141.607 22.3409 142.007 22.2794 142.37 22.1562C142.733 22.0331 143.044 21.8485 143.302 21.6023C143.561 21.3561 143.758 21.0545 143.893 20.6974L147.531 20.9375C147.346 21.8116 146.968 22.5748 146.395 23.2273C145.829 23.8736 145.097 24.3783 144.198 24.7415C143.305 25.0985 142.274 25.277 141.105 25.277Z" fill="#010101"/>
<circle cx="152.5" cy="7.5" r="3.5" fill="#FA8B84"/>
</svg>
